<svg xmlns="http://www.w3.org/2000/svg" xmlns:xlink="http://www.w3.org/1999/xlink" viewBox="0 0 158 127.84"><defs><linearGradient id="linear-gradient" y1="93.89" x2="158" y2="93.89" gradientUnits="userSpaceOnUse"><stop offset="0" stop-color="#00446a"/><stop offset="0.16" stop-color="#02456e"/><stop offset="0.33" stop-color="#06487a"/><stop offset="0.5" stop-color="#0e4d8e"/><stop offset="0.66" stop-color="#1955ab"/><stop offset="0.83" stop-color="#285ecf"/><stop offset="1" stop-color="#396afb"/><stop offset="1" stop-color="#396afc"/></linearGradient><radialGradient id="radial-gradient" cx="79" cy="25.96" r="25.96" gradientUnits="userSpaceOnUse"><stop offset="0" stop-color="#c8d242"/><stop offset="1" stop-color="#a6d242"/></radialGradient></defs><g id="Layer_2" data-name="Layer 2"><g id="Layer_1-2" data-name="Layer 1"><path d="M37.27,101H11.09L39.76,66.6a4.4,4.4,0,0,0,1.06-2.66,4,4,0,0,0-1.06-2.71,3.69,3.69,0,0,0-2.49-1.29H3.52a3.49,3.49,0,0,0-1.34.45,4.11,4.11,0,0,0-1.9,2A3.3,3.3,0,0,0,0,63.76a4.4,4.4,0,0,0,1.06,2.91,4,4,0,0,0,2.46,1.48H29.73l-29,34a2.89,2.89,0,0,0-.76,2,3,3,0,0,0,.27,1.26A3.18,3.18,0,0,0,1,106.47a4.45,4.45,0,0,0,1.13,1,4.16,4.16,0,0,0,1.36.54H37.27c.47,0,.92-.39,1.36-.57a4.4,4.4,0,0,0,1.91-2.09,3.67,3.67,0,0,0,.28-1.42,2.77,2.77,0,0,0-1-2.16A3.18,3.18,0,0,0,37.27,101Z" style="fill:url(#linear-gradient)"/><path d="M85.16,91a3.88,3.88,0,0,0-.79-1.33,4.18,4.18,0,0,0-2.67-1.38,3.55,3.55,0,0,0-1.53.17,3.84,3.84,0,0,0-2.12,1.78l-.7,1.17-.67,1.12a14.21,14.21,0,0,1-7.82,5.87,15.47,15.47,0,0,1-8.11.51L76.09,67.85a3.84,3.84,0,0,0,.22-3.06c-.54-1.57-2.29-2.74-5.22-3.5a30.54,30.54,0,0,0-7.68-1.06,22.24,22.24,0,0,0-7.16,1.15A23.65,23.65,0,0,0,41.53,91.3a22.63,22.63,0,0,0,11.89,13.45,23.3,23.3,0,0,0,10.3,2.49,24.11,24.11,0,0,0,7.7-1.32A24.77,24.77,0,0,0,83.24,97C85.06,94.54,85.69,92.6,85.16,91ZM67.44,68.45,54,95.76a14.1,14.1,0,0,1-5-7A15.7,15.7,0,0,1,58.8,68.88,16,16,0,0,1,63.92,68,13.5,13.5,0,0,1,67.44,68.45Z" style="fill:url(#linear-gradient)"/><path d="M122.42,62.43a3.65,3.65,0,0,0-.79-1.13,4.19,4.19,0,0,0-1.13-.92,3.57,3.57,0,0,0-1.35-.44H84.37a3.92,3.92,0,0,0-3.58,3.77,3.68,3.68,0,0,0,.29,1.42,3.9,3.9,0,0,0,.78,1.15c.32.33.71,1,1.13,1.18s.9.69,1.38.69H98.08V104a3.52,3.52,0,0,0,.35,1.38,3.39,3.39,0,0,0,.81,1.12,3.83,3.83,0,0,0,1.16.76,3.75,3.75,0,0,0,1.34.26,3.64,3.64,0,0,0,2.51-1,3.16,3.16,0,0,0,.68-1.13,3.24,3.24,0,0,0,.19-1.38V68.15h14a4,4,0,0,0,2.49-1.46,3.91,3.91,0,0,0,1.1-2.71A3.81,3.81,0,0,0,122.42,62.43Z" style="fill:url(#linear-gradient)"/><path d="M151.09,67a24.82,24.82,0,0,0-13.25-6.67q-4.46-.83-6.19.91a3.62,3.62,0,0,0-.83,1.29,4.45,4.45,0,0,0-.33,1.51,4.2,4.2,0,0,0,.26,1.5,3.56,3.56,0,0,0,.83,1.31A3.84,3.84,0,0,0,134.11,68l1.37.11.88.07.41,0a14.22,14.22,0,0,1,8.72,4.43,15.5,15.5,0,0,1,4,7l-34.69,0A3.88,3.88,0,0,0,112,80.8c-1.17,1.17-1.45,3.27-.84,6.23,1.13,5.54,3.36,10.44,6.64,13.7a23.22,23.22,0,0,0,16.7,7.31h0c6.51,0,12.12-2.77,16.66-7.31A23.15,23.15,0,0,0,158,83.91,23.45,23.45,0,0,0,151.09,67ZM149.67,88.1a15.25,15.25,0,0,1-15.16,11.41c-4.34,0-8.07-1.18-11.09-4.21a15.53,15.53,0,0,1-4.21-7.2Z" style="fill:url(#linear-gradient)"/><path d="M3.57,127.84a4.81,4.81,0,0,1-1.25-.15,4.18,4.18,0,0,1-1.11-.45,2.52,2.52,0,0,1-.65-.46.57.57,0,0,1,0-.72.43.43,0,0,1,.33-.17.67.67,0,0,1,.42.17,3.86,3.86,0,0,0,1,.54,3.42,3.42,0,0,0,1.19.22,2.55,2.55,0,0,0,1.53-.4,1.29,1.29,0,0,0,.55-1.08,1.13,1.13,0,0,0-.44-1,3,3,0,0,0-1.16-.49c-.8-.17-1.37-.3-1.72-.41a2.82,2.82,0,0,1-.92-.45,1.93,1.93,0,0,1-.6-.72,2.4,2.4,0,0,1-.22-1.1,2.29,2.29,0,0,1,.88-1.87,3.49,3.49,0,0,1,2.27-.72,4.44,4.44,0,0,1,1.88.4c.58.27.88.54.88.81a.62.62,0,0,1-.17.4.43.43,0,0,1-.34.2.79.79,0,0,1-.42-.17,3.21,3.21,0,0,0-1.85-.62,2.4,2.4,0,0,0-1.53.42,1.33,1.33,0,0,0-.53,1.08,1.25,1.25,0,0,0,.27.82,1.59,1.59,0,0,0,.69.48,11.9,11.9,0,0,0,1.57.41,3.84,3.84,0,0,1,2,.9,2.21,2.21,0,0,1,.51,1.51,2.31,2.31,0,0,1-.85,1.83A3.38,3.38,0,0,1,3.57,127.84Z" style="fill:url(#linear-gradient)"/><path d="M23.21,123.57A3.39,3.39,0,0,0,24,125.9a2.61,2.61,0,0,0,2.07.92,3.8,3.8,0,0,0,1.09-.17,4.19,4.19,0,0,0,.95-.44.9.9,0,0,1,.4-.18.42.42,0,0,1,.34.18.56.56,0,0,1,.14.38c0,.25-.3.53-.91.81a4.64,4.64,0,0,1-2,.44,3.64,3.64,0,0,1-2.9-1.23,4.86,4.86,0,0,1-1.07-3.29A5.23,5.23,0,0,1,23.16,120,3.47,3.47,0,0,1,26,118.63a3.11,3.11,0,0,1,2.5,1.07,4.28,4.28,0,0,1,.91,2.87,1.14,1.14,0,0,1-.21.74.75.75,0,0,1-.6.26Zm5.16-1a3.33,3.33,0,0,0-.64-2.1,2.08,2.08,0,0,0-1.74-.81,2.52,2.52,0,0,0-1.91.8,3.35,3.35,0,0,0-.85,2.11Z" style="fill:url(#linear-gradient)"/><path d="M57.37,127.18c0,.36-.17.54-.52.54a.48.48,0,0,1-.55-.54v-5.37a2.19,2.19,0,0,0-.56-1.58,2,2,0,0,0-1.52-.58,2.08,2.08,0,0,0-1.67.75,3.16,3.16,0,0,0-.63,2.14v4.64a.47.47,0,0,1-.53.54.48.48,0,0,1-.55-.54v-5.37a2.26,2.26,0,0,0-.53-1.59,1.92,1.92,0,0,0-1.48-.57,2.11,2.11,0,0,0-1.74.78,3.24,3.24,0,0,0-.63,2.11v4.64a.54.54,0,1,1-1.08,0v-7.89a.54.54,0,1,1,1.08,0V120a3,3,0,0,1,1-1,2.82,2.82,0,0,1,1.43-.37,3.11,3.11,0,0,1,1.6.39,2.79,2.79,0,0,1,1.08,1.19A2.89,2.89,0,0,1,52.7,119a3.14,3.14,0,0,1,1.59-.41,3.05,3.05,0,0,1,2.27.8,3,3,0,0,1,.81,2.22Z" style="fill:url(#linear-gradient)"/><path d="M74.36,116.61a.71.71,0,0,1-.52-.22.76.76,0,0,1-.2-.51.7.7,0,0,1,.22-.52.66.66,0,0,1,.5-.21.73.73,0,0,1,.51.2.7.7,0,0,1,.23.53.69.69,0,0,1-.22.52A.7.7,0,0,1,74.36,116.61Zm.54,10.57a.49.49,0,0,1-.56.54q-.51,0-.51-.54v-7.91a.46.46,0,0,1,.53-.52c.36,0,.54.17.54.52Z" style="fill:url(#linear-gradient)"/><path d="M92.47,127.18c0,.35-.18.52-.55.52a.46.46,0,0,1-.53-.52V115.13a.46.46,0,0,1,.53-.52c.37,0,.55.17.55.52Z" style="fill:url(#linear-gradient)"/><path d="M110,127.18c0,.35-.18.52-.55.52a.46.46,0,0,1-.53-.52V115.13a.46.46,0,0,1,.53-.52c.37,0,.55.17.55.52Z" style="fill:url(#linear-gradient)"/><path d="M133.41,127.18a.54.54,0,1,1-1.07,0v-.84a3.11,3.11,0,0,1-1.12,1.13,3.25,3.25,0,0,1-1.57.37,3.18,3.18,0,0,1-2.68-1.27,5.39,5.39,0,0,1-1-3.35,5.22,5.22,0,0,1,1-3.32,3.32,3.32,0,0,1,2.79-1.27,3,3,0,0,1,1.49.34,2.77,2.77,0,0,1,1.07,1v-.73a.46.46,0,0,1,.53-.52c.36,0,.54.17.54.52Zm-1.07-4.8a2.75,2.75,0,0,0-.72-2,2.37,2.37,0,0,0-1.8-.76,2.34,2.34,0,0,0-2,1,4.27,4.27,0,0,0-.72,2.55,4.42,4.42,0,0,0,.69,2.63,2.34,2.34,0,0,0,2,1,2.38,2.38,0,0,0,1.81-.76,2.78,2.78,0,0,0,.71-2Z" style="fill:url(#linear-gradient)"/><path d="M152.36,127.84a4.87,4.87,0,0,1-1.25-.15,4,4,0,0,1-1.11-.45,2.52,2.52,0,0,1-.65-.46.55.55,0,0,1-.11-.34.59.59,0,0,1,.14-.38.48.48,0,0,1,.34-.17.69.69,0,0,1,.42.17,3.64,3.64,0,0,0,1,.54,3.36,3.36,0,0,0,1.18.22,2.55,2.55,0,0,0,1.53-.4,1.28,1.28,0,0,0,.54-1.08,1.12,1.12,0,0,0-.43-1,3,3,0,0,0-1.17-.49c-.78-.17-1.35-.3-1.71-.41a2.67,2.67,0,0,1-.91-.45,1.87,1.87,0,0,1-.61-.72,2.4,2.4,0,0,1-.22-1.1,2.26,2.26,0,0,1,.88-1.87,3.48,3.48,0,0,1,2.26-.72,4.45,4.45,0,0,1,1.89.4q.87.41.87.81a.64.64,0,0,1-.15.4.46.46,0,0,1-.35.2.82.82,0,0,1-.42-.17,3.21,3.21,0,0,0-1.85-.62,2.42,2.42,0,0,0-1.53.42,1.33,1.33,0,0,0-.53,1.08,1.3,1.3,0,0,0,.26.82,1.69,1.69,0,0,0,.7.48,11.9,11.9,0,0,0,1.57.41,3.84,3.84,0,0,1,2,.9,2.21,2.21,0,0,1,.51,1.51,2.33,2.33,0,0,1-.84,1.83A3.39,3.39,0,0,1,152.36,127.84Z" style="fill:url(#linear-gradient)"/><path d="M100.93,12.08a26,26,0,1,0-8.05,35.81A26,26,0,0,0,100.93,12.08ZM92,46.43A24.23,24.23,0,1,1,99.47,13,24.21,24.21,0,0,1,92,46.43ZM62.26,22.32v.34c4,1.67,8.24,6.21,11.1,7.38C69.83,26.85,67.14,23.16,62.26,22.32Zm36.29-8.73A23.13,23.13,0,1,0,82.18,48.87l-1.14-5,2.21,4.82a23.13,23.13,0,0,0,15.3-35.11ZM81.82,37.91c.06,2.05-1,3.93-.66,5.83-2.21-6-9.11-10.25-15.6-12-3.1-.15-8.32.25-6.47-4.85C61,25,62,22.77,61,20.37c.78-2.35,2.26-.73,3.6-1.82-.49-3.83,2.84-5.27,3.84-8.34.55-.78,1.93-.68,2.73-1,3.18,4.56,0-4.1,4.12-.38l1-.45C77.64,4.5,77.81,11,79.52,6.07c2.22,1,6-.71,6.65,2.94-3.58,5.91-5.4,13.05-6.63,19.74-2.14-1.5-2.52-4.67-5.2-5.41l3.41,5.89c-2.12.54,1.18,2.87.5,3.84-2.71.13-6.19-3.19-9.34-3.66-1.52.09-3.85-1.55-4.94,0,5.62,1.92,11.76,3.93,15.36,7.9-.36.92.28,1.66.93,2.4.88-.83-.14-2.7.63-4.2,2.25-5.68,6.89-9.39,10.76-13.64a14.11,14.11,0,0,0-5.91,4.27c1.41-3.66,5.88-5.46,7.15-8.92-4.33,1.61-7.08,6.35-10.35,10.15.67-3,3.64-5.57,4.84-8.51-1.1-1.35-1.6.62-2.54,1.12l-3.66,6.44a38.83,38.83,0,0,1,7.09-17.1C89.93,9,92,9,92.32,11c-.52,4.86,5.58,3.63,6.18,8.13C91.74,23.39,84,29,81.82,37.91Z" style="fill:url(#radial-gradient)"/></g></g></svg>