<svg xmlns="http://www.w3.org/2000/svg" viewBox="0 0 131.38 131.39"><g id="Layer_2" data-name="Layer 2"><g id="Layer_1-2" data-name="Layer 1"><path d="M121.2,30.58a65.68,65.68,0,1,0-20.38,90.62A65.68,65.68,0,0,0,121.2,30.58ZM98.48,117.52a61.32,61.32,0,1,1,19-84.61A61.31,61.31,0,0,1,98.48,117.52Zm-75.15-61v.85C33.54,61.59,44.19,73.06,51.43,76,42.48,68,35.67,58.6,23.33,56.49Zm91.85-22.1a58.56,58.56,0,1,0-41.43,89.3l-2.89-12.63,5.6,12.2a58.58,58.58,0,0,0,38.72-88.87ZM72.84,95.94c.16,5.2-2.67,10-1.69,14.75-5.57-15.26-23-25.92-39.47-30.47-7.84-.37-21,.64-16.38-12.26,4.79-4.72,7.27-10.33,4.91-16.4,2-6,5.72-1.85,9.12-4.61-1.25-9.7,7.19-13.33,9.71-21.11,1.39-2,4.89-1.72,6.91-2.5,8,11.55.14-10.39,10.44-1l2.39-1.15c3.46-9.85,3.91,6.54,8.23-5.87,5.61,2.48,15.23-1.78,16.84,7.44-9.06,15-13.68,33-16.79,50C61.65,69,60.7,60.93,53.9,59.08L62.53,74c-5.37,1.37,3,7.25,1.26,9.71-6.85.32-15.65-8.08-23.63-9.27-3.85.23-9.73-3.92-12.51,0,14.22,4.86,29.77,9.93,38.88,20-.9,2.32.72,4.19,2.35,6.07,2.22-2.11-.34-6.85,1.6-10.64,5.7-14.37,17.45-23.75,27.24-34.52-5.23,2.2-11.5,5.89-15,10.81,3.58-9.27,14.88-13.81,18.09-22.58-11,4.06-17.92,16.07-26.17,25.7,1.69-7.63,9.19-14.11,12.22-21.54-2.76-3.41-4,1.56-6.42,2.84L71.22,66.87c2.56-15.13,8.11-30.34,18-43.27,4.19-.73,9.36-.77,10.23,4.26-1.3,12.31,14.12,9.19,15.66,20.58C98,59.19,78.4,73.39,72.84,95.94Z" style="fill:#003657"/></g></g></svg>