<svg xmlns="http://www.w3.org/2000/svg" viewBox="0 0 173.95 344.65"><g id="Layer_2" data-name="Layer 2"><g id="Layer_1-2" data-name="Layer 1"><path d="M174,235.49c-11-.83-22.14-1.35-32.48-5.44-5.77-2.28-11.49-5.47-14.73-11.46a2.3,2.3,0,0,0-.68-.71c-8-6-10.66-14.81-12.18-24.19-1-6.35-4.67-11.81-5-18.64-.83-17.85,3.68-33.27,17.49-45.1,7.14-6.11,13.9-13,23-16.15,5.86-2,11-6.23,17.86-5.45,2.28.26,4.35,1.44,6.67,1.19Z" style="fill:#fff"/><path d="M174,102.54c-4.28-1.49-5.09-5.39-5.85-9.07-1.52-7.44-2.74-14.94-4.55-22.39-1.6,5.2-1.06,10.45-.27,15.64.65,4.26,1.82,8.44,2.58,12.69.24,1.32,1.8,3.12,0,4s-2.45-1.36-3.11-2.43c-7.12-11.5-12.85-23.59-14.54-37.24-.41-3.3-.63-6.62-1-9.92-.08-.75.22-1.76-.87-2.06s-1.17.79-1.62,1.4c-2.9,3.85-5.06,3.79-8-.25s-3.5-8.84-6.38-14.14V49.68c-3.44-1.17-4.77-3.72-5.72-6.2A51,51,0,0,1,122.05,16c.55-3.17,1.48-4.16,4.28-1.64,10.43,9.38,18.12,20.22,19,34.85,0,.38.42.75.62,1.08,1.37-.11,1.23-1.09,1.26-1.83.73-16,5.95-30.55,13.5-44.39,3-5.45,4.7-5.4,8.3-.26,1.59,2.28,2.61,5,4.91,6.74Z" style="fill:#fff"/><path d="M174,338.44a42.6,42.6,0,0,1-6.56-23c.12-12.81,2.68-25.32,4.92-37.87.16-.93.32-2,1.64-2.13Z" style="fill:#fff"/><path d="M91.72,225a135.44,135.44,0,0,1,20-8.3,24.5,24.5,0,0,1,2.83-.91c1.38-.23,3.16-1.3,4,.49,1.06,2.21-1,2.86-2.45,3.54a153.68,153.68,0,0,0-38,25.9c-1.28,1.19-3.14,2-3.4,4.4,2.24.55,3.65-1,5.11-2.06,11.7-8.4,23.43-16.77,36.31-23.3,2.12-1.08,4.22-3.42,6.64-.92,2.27,2.35,1,5-.17,7.42a87.07,87.07,0,0,1-20.47,26.71,3.62,3.62,0,0,0-1.27,2.22c5.93-1.95,10.5-5.78,14.58-10.47s5.67-11.23,10.37-16.49c.89,2.57.34,4.53-.19,6.49-6.16,22.71-21.76,36.62-42.32,45.8-10.51,4.69-21.67,7.07-33,8.59-7.37,1-8.84-.92-6.41-7.84,8.08-23,20.84-42.59,41-56.78.79-.56,1.75-1,1.56-2.34-1.34-1.31-2.48,0-3.5.5A82.76,82.76,0,0,1,35,234c-6-.93-12.23-.4-18.13-2.5-4.76-1.69-5.19-2.85-2-6.95C29.16,206,48.62,195.22,70.2,187.66a107.2,107.2,0,0,1,22.09-5.48c2.29-.29,4.86-1.05,6,1.86,1.27,3.28-1.55,4.07-3.6,4.84,0,.93.15,1.28.76,1.42,1,.24,2.51-1.27,3,.44s-1.35,2-2.44,2.53c-7.34,3.43-14.72,6.78-22.07,10.18-2.79,1.29-5.54,2.65-9.19,4.4a6.81,6.81,0,0,0,6,0q14-5,28-10c3.13-1.1,6.49-2.62,9,.94s1.07,7-1.43,10a82.69,82.69,0,0,1-12.08,11.8C93.22,221.51,91.47,221.93,91.72,225Z" style="fill:#fff"/><path d="M132.77,261.22c2.88-1.6,3.31-4.71,4.73-7.18a62.86,62.86,0,0,1,7.25-10.67c1.14-1.29,2.16-2.78,4.09-1.86,2.21,1.06,1,2.76.54,4.29-.76,2.44-2,4.79-1.89,8.11,2.87-2.26,2.95-5.27,4.07-7.68,2.24-4.77,3.72-5.42,8.51-3.35,3.94,1.7,6.58,4.53,7,8.92,2.68,27.85-3.42,52.28-27.09,69.79-6.77,5-13,10.87-20.82,14.31-4.82,2.11-5.89,1.4-6.7-4-4.75-31.22,2.38-59.74,19.36-86a58.44,58.44,0,0,1,5.84-7.4,3.2,3.2,0,0,1,4.87-.28c1.45,1.47-.11,2.69-1,3.83A44.5,44.5,0,0,0,132.77,261.22Z" style="fill:#fff"/><path d="M96.69,148.28c11.54,6.24,11.22,13.64-.45,24.86l6.88.56c-.06.5,0,1-.15,1.08-18.31,8.17-37.14,11.61-56,3C34.25,172,23.36,163.09,12.63,154.21a14.7,14.7,0,0,1-2.55-3c-3.31-4.79-2.6-7.48,2.92-9.44,8-2.85,16.46-3.62,24.81-4.65,19.49-2.4,38.93-2.6,58.13,2.5a16.38,16.38,0,0,1,6.27,2.84c1.16.93,2.63,2,2.25,3.61s-2.14,1.19-3.4,1.41Z" style="fill:#fff"/><path d="M140,112.35c-13,.6-23.56-5-33.27-12.42C91,88,82.65,71.16,76.88,52.78a85.2,85.2,0,0,1-2.76-11.12c-1.36-8,.1-9.22,7.85-7.47,8.78,2,16.92,5.55,24.92,9.57,23.35,11.72,40,29.59,49.21,54.23.68,1.8,3.07,4.29.45,5.68s-3.28-1.9-4.28-3.57A160.58,160.58,0,0,0,125.1,65.93c-2.27-2.15-2.28-2.14-5.78-3.33.5,2.85,2.41,4.46,4,6.18a265.43,265.43,0,0,1,24.82,33c1.33,2,3.39,4.26,1.23,6.71-2,2.21-4.73,1.23-7,.37a84,84,0,0,1-25.52-16,17.31,17.31,0,0,0-4.68-3.28C117.45,102,129.4,106.27,140,112.35Z" style="fill:#fff"/><path d="M77.89,125.57c-.44,4.14,4.15,4.05,4.63,7.41a46.55,46.55,0,0,1-19-8.29C50.35,115.41,41,102.85,34,88.44c-2.45-5-1.44-6.64,4.16-6.73,26.69-.43,50,9.55,71.58,24.22,4,2.69,7.57,5.91,11.27,9,1.47,1.22,3.7,2.55,1.74,4.81s-3.89.9-5.55-.71a130.36,130.36,0,0,0-20.53-16.43A17.44,17.44,0,0,0,95,101.49c-1-.48-2.23-1.41-3.16-.26-1.25,1.55.37,2.51,1.31,3.16,4.48,3.12,9.2,5.91,13.57,9.17a58.12,58.12,0,0,1,8.77,8c4.53,5.14,2.13,11.56-4.57,12.54-10.3,1.52-20.12.57-28.75-6.1A39.62,39.62,0,0,0,77.89,125.57Z" style="fill:#fff"/><path d="M93.15,302.94c3.75.91,5.84-2.2,8.78-2.3-1.84,6.07-8.75,11.88-17.82,14.64-3.25,1-7.7,3.31-9.83,1-2.36-2.59,1.08-6.35,2.45-9.44a37,37,0,0,1,13.46-16.21c1.51-1,3-2.29,4.7-2.68,2.58-.61,5.66-2,7.64,1.14s-.27,5.25-2.35,7.24C98,298.44,95.69,300.55,93.15,302.94Z" style="fill:#fff"/><path d="M39.64,258c3.6,1.58,6.13-1.21,9.5-.17-5.43,7-12.81,9.33-20.76,10.27-3.2.38-7.77,1.66-9.37-1-1.69-2.81,2.09-5.75,3.88-8.43a36.35,36.35,0,0,1,17.69-13.88,12.48,12.48,0,0,1,6.29-1.06c1.88.27,3.6.74,4.19,2.89a4.37,4.37,0,0,1-1.83,5.23C46.26,253.87,43.21,255.75,39.64,258Z" style="fill:#fff"/><path d="M49.66,186.86c-6.08,3.23-12.56,4-19.17,4.06-2.34,0-4.13-.71-6,2.41-2.7,4.58-10,5.19-14.68,2.35-2-1.2-3.88-2.51-5.79-3.82-5.47-3.76-5.42-4.31.28-7.24A29.64,29.64,0,0,1,21,181.3C30.74,182.18,40,185.23,49.66,186.86Z" style="fill:#fff"/><path d="M79.66,80.49c-6.57-.64-12.07-3.93-17.61-7.16-1.68-1-2.48-2.51-5.41-.51s-7.93.62-10.62-2.91C42.87,65.77,39.3,59.8,41.83,56c2-3,8.86-.69,13.2,1.23,5.55,2.46,9.67,6.93,13.72,11.26,3.69,3.94,8.12,7.24,10.82,12.07Z" style="fill:#fff"/><path d="M30.22,122.79c0,3,4.82,2.75,3.23,5.12s-4.26-.12-6.28-.69a36.78,36.78,0,0,1-16.86-9.87c-1.84-1.93-2.14-3.41,1.13-3.71,9.4-.85,18.76-1.13,27.67,2.84a17.29,17.29,0,0,1,3.52,1.76c1.64,1.26,4,2.48,3,5.07s-3.76,2.45-6,2C36.51,124.7,33.45,123.68,30.22,122.79Z" style="fill:#fff"/><path d="M160,324.15c2.43.43,1.87-2.19,3.62-2.16,1.5,9.06-3.21,15.54-8.5,21.76-1.2,1.42-2.31,1.14-2.82-.67-2.31-8.2-2.59-16.38.87-24.34,1-2.34,2.28-5.65,5.37-4.79,3.56,1,2.58,4.42,2,7.22C160.35,322.11,160.22,323.06,160,324.15Z" style="fill:#fff"/><path d="M79.57,80.56a1.71,1.71,0,0,1,.33.17s0,.17,0,.25l-.24-.49Z" style="fill:#fff"/></g></g></svg>